# xmcd
#
# Track frame offsets:
#	150
#	9538
#	23057
#	37110
#	48477
#	59799
#	67169
#	73419
#	77549
#	88600
#	95600
#	107365
#	125826
#	131560
#	140633
#	146746
#	156599
#	168456
#	177490
#	190088
#	204542
#	217496
#	226998
#	239919
#	248349
#	255931
#	264377
#
# Disc length: 3732 seconds
#
# Revision: 1
# Processed by: cddbd v1.5.2PL0 Copyright (c) Steve Scherf et al.
# Submitted via: EasyCDDAExtractor 11.0.2.1
#
DISCID=a30e921b
DTITLE=ΛΟΥΛΑ ΠΑΠΠΑ - ΚΑΡΒΟΥΝΑΚΙ ΑΝΑΜΕΝΟ
DYEAR=2007
DGENRE=Ethnic
TTITLE0=ΚΑΡΒΟΥΝΑΚΙ ΑΝΑΜΕΝΟ
TTITLE1=ΜΕΤΑΞΕΝΙΑ ΔΥΟ ΧΕΙΛΑΚΙΑ
TTITLE2=ΖΩΓΡΑΦΙΑ ΜΟΥ
TTITLE3=ΒΡΗΚΑ ΜΙΑ ΦΩΤΟΓΡΑΦΙΑ
TTITLE4=ΩΡΑΙΟ ΨΕΜΜΑ
TTITLE5=ΔΕ ΣΟΥ ΠΕΦΤΕΙ ΕΣΕΝΑ ΛΟΓΟΣ
TTITLE6=ΒΟΥΝΟ ΗΤΑΝ Ο ΕΡΩΤΑΣ
TTITLE7=ΕΝΑ ΜΩΡΕ ΕΝΑ
TTITLE8=ΜΑΡΗ ΠΟΥ ΠΑΣ ΑΠΑΝΩ
TTITLE9=ΤΙ ΡΩΤΑΣ ΤΙ ΡΩΤΑΣ
TTITLE10=ΑΠΟΨΕ ΦΩΣ ΜΟΥ ΚΑΤΑΡΡΕΩ
TTITLE11=ΣΕ ΚΑΛΗ ΜΕΡΙΑ
TTITLE12=ΚΑΤΙ ΠΡΑΣΙΝΑ ΜΑΤΑΚΙΑ
TTITLE13=ΚΑΡΔΙΟΧΤΥΠΙΑ
TTITLE14=ΒΑΛΕ ΚΑΙ ΒΑΛΕ
TTITLE15=ΗΤΑΝΕ ΟΝΕΙΡΟ
TTITLE16=Η ΠΟΡΤΑ ΤΟΥ ΠΑΡΑΔΕΙΣΟΥ
TTITLE17=ΝΑ 'ΜΟΥΝΑ ΓΑΡΓΑΡΟ ΝΕΡΟ
TTITLE18=ΤΟ 'ΛΕΓΑ ΣΑΝ ΚΑΡΔΕΡΙΝΑ
TTITLE19=ΤΗΣ ΛΗΣΜΟΝΙΑΣ ΤΟ ΛΟΥΛΟΥΔΟ
TTITLE20=ΜΗΝ ΤΡΕΧΕΧΕΙΣ ΜΑΝΑ ΓΙΑ ΓΙΑΤΡΟΥΣ
TTITLE21=ΟΛΑ ΜΕΛΙ ΓΑΛΑ
TTITLE22=ΓΛΥΚΑ ΓΛΥΚΑ
TTITLE23=ΔΙΑΒΑΣΕ ΚΙ ΑΥΤΟ ΤΟ ΓΡΑΜΜΑ
TTITLE24=ΑΠ' ΤΗΣ ΚΑΡΔΙΑΣ ΤΑ ΦΥΛΛΑ
TTITLE25=ΜΙΑ ΚΑΡΔΟΥΛΑ ΤΟΣΗ ΔΑ
TTITLE26=ΟΡΓΑΝΙΚΟ
EXTD=
EXTT0=
EXTT1=
EXTT2=
EXTT3=
EXTT4=
EXTT5=
EXTT6=
EXTT7=
EXTT8=
EXTT9=
EXTT10=
EXTT11=
EXTT12=
EXTT13=
EXTT14=
EXTT15=
EXTT16=
EXTT17=
EXTT18=
EXTT19=
EXTT20=
EXTT21=
EXTT22=
EXTT23=
EXTT24=
EXTT25=
EXTT26=
PLAYORDER=
